<svg
   xmlns="http://www.w3.org/2000/svg"
   width="42"
   height="22"
   version="1.1">
  <path
     style="fill:#1a1a1a"
     d="m 8,3 c 2,-2 4,-3 6,-3 3,0 6,2 6,6 0,1 0,3 -2,5 2,2 2,4 2,5 0,4 -3,6 -6,6 -2,0 -4,-1 -6,-3 l 3,-3 c 5,5 7.5,-3 1,-3 l 0,-4 c 6,0 4,-8 -1,-3 z" />
  <path
     style="fill:#1a1a1a"
     d="m 22,22 0,-22 9,0 0,4 -5,0 0,5 4,0 0,4 -4,0 0,9 z" />
  <path
     style="fill:#999999"
     d="m 12,9 -4,0 -2,2 2,2 4,0 z" />
  <path
     style="fill:#800000"
     d="m 8,3 -8,8 8,8 3,-3 -5,-5 5,-5 z" />
  <path
     style="fill:#1a1a1a"
     d="m 33,22 0,-22 9,0 0,4 -5,0 0,5 4,0 0,4 -4,0 0,9 z" />
</svg>
