<svg
   xmlns="http://www.w3.org/2000/svg"
   width="420"
   height="220"
   version="1.1">
  <path
     style="fill:#1a1a1a"
     d="m 80,30 c 20,-20 40,-30 60,-30 30,0 60,20 60,60 0,10 0,30 -20,50 20,20 20,40 20,50 0,40 -30,60 -60,60 -20,0 -40,-10 -60,-30 l 30,-30 c 50,50 75,-30 10,-30 l 0,-40 c 65,0 40,-80 -10,-30 z" />
  <path
     style="fill:#1a1a1a"
     d="m 220,220 0,-220 90,0 0,40 -50,0 0,50 40,0 0,40 -40,0 0,90 z" />
  <path
     style="fill:#999999"
     d="m 120,90 -40,0 -20,20 20,20 40,0 z" />
  <path
     style="fill:#800000"
     d="m 80,30 -80,80 80,80 30,-30 -50,-50 50,-50 z" />
  <path
     style="fill:#1a1a1a"
     d="m 330,220 0,-220 90,0 0,40 -50,0 0,50 40,0 0,40 -40,0 0,90 z" />
</svg>
